<?xml version="1.0" encoding="UTF-8" standalone="no"?>
<!DOCTYPE svg PUBLIC "-//W3C//DTD SVG 1.1//EN" "http://www.w3.org/Graphics/SVG/1.1/DTD/svg11.dtd">
<svg width="100%" height="100%" viewBox="0 0 128 128" version="1.1" xmlns="http://www.w3.org/2000/svg" xmlns:xlink="http://www.w3.org/1999/xlink" xml:space="preserve" xmlns:serif="http://www.serif.com/" style="fill-rule:evenodd;clip-rule:evenodd;stroke-linejoin:round;stroke-miterlimit:2;">
    <g transform="matrix(0.781895,0,0,0.781895,-197.599,-54.2851)">
        <clipPath id="_clip1">
            <path d="M402,112.59L337.47,75.72L337.47,226.84L363.25,211.88L363.25,169.36L382.72,180.63L382.61,151.54L363.25,140.48L363.25,123.59L402.09,146.03L402,112.59Z"/>
        </clipPath>
        <g clip-path="url(#_clip1)">
            <rect x="261.18" y="75.17" width="158.47" height="151.86" style="fill:url(#_Linear2);"/>
        </g>
    </g>
    <g transform="matrix(0.781895,0,0,0.781895,-197.599,-54.2851)">
        <clipPath id="_clip3">
            <path d="M267.14,112.59L331.67,75.72L331.67,226.84L305.89,211.88L305.89,123.59L267.05,146.03L267.14,112.59Z"/>
        </clipPath>
        <g clip-path="url(#_clip3)">
            <rect x="260.11" y="75.17" width="158.47" height="151.86" style="fill:url(#_Linear4);"/>
        </g>
    </g>
    <defs>
        <linearGradient id="_Linear2" x1="0" y1="0" x2="1" y2="0" gradientUnits="userSpaceOnUse" gradientTransform="matrix(158.47,0,0,158.47,261.18,151.1)"><stop offset="0" style="stop-color:rgb(255,111,0);stop-opacity:1"/><stop offset="1" style="stop-color:rgb(255,168,0);stop-opacity:1"/></linearGradient>
        <linearGradient id="_Linear4" x1="0" y1="0" x2="1" y2="0" gradientUnits="userSpaceOnUse" gradientTransform="matrix(25112.7,0,0,25112.7,41479.7,23021.2)"><stop offset="0" style="stop-color:rgb(255,111,0);stop-opacity:1"/><stop offset="1" style="stop-color:rgb(255,168,0);stop-opacity:1"/></linearGradient>
    </defs>
</svg>
